<svg width="430" height="430" viewBox="0 0 430 430" fill="none" xmlns="http://www.w3.org/2000/svg">
<path d="M25 215.001C58.5237 143.703 130.998 94.3428 215 94.3428C299.002 94.3428 371.476 143.702 405 215C371.476 286.298 299.002 335.658 215 335.658C130.998 335.658 58.5238 286.298 25 215.001Z" fill="#EBE6EF"/>
<g style="mix-blend-mode:multiply" opacity="0.5">
<path d="M123.828 115.131C98.0564 143.223 76.4552 175.169 60 210.001C79.9253 252.177 107.396 290.123 140.68 322.117C89.6232 302.776 48.0804 264.088 25 215.001C45.4848 171.434 80.5131 136.059 123.828 115.131Z" fill="#EBE6EF"/>
</g>
<path d="M295 215C295 259.221 259.221 295.001 215 295.001C170.779 295.001 135 259.221 135 215C135 170.779 170.779 135 215 135C259.221 135 295 170.779 295 215Z" fill="#4BB3FD"/>
<g style="mix-blend-mode:multiply" opacity="0.5">
<path d="M260.423 280.885C252.438 283.555 243.889 285.001 235 285.001C190.779 285.001 155 249.222 155 205.001C155 177.656 168.68 153.54 189.577 139.115C157.84 149.726 135 179.668 135 215C135 259.221 170.779 295 215 295C231.877 295 247.525 289.789 260.423 280.885Z" fill="#4BB3FD"/>
</g>
<path d="M255 215C255 237.111 237.11 255 215 255C192.889 255 175 237.111 175 215C175 192.889 192.889 175 215 175C237.11 175 255 192.889 255 215Z" fill="#3A3347"/>
<g style="mix-blend-mode:multiply" opacity="0.5">
<path d="M234.403 249.996C212.569 249.677 195 231.911 195 210C195 194.933 203.307 181.826 215.596 175.004C215.398 175.001 215.199 175 215 175C192.889 175 175 192.889 175 215C175 237.111 192.889 255 215 255C222.043 255 228.658 253.185 234.403 249.996Z" fill="#3A3347"/>
</g>
<path d="M205 187.5C205 197.173 197.173 205 187.5 205C177.827 205 170 197.173 170 187.5C170 177.827 177.827 170 187.5 170C197.173 170 205 177.827 205 187.5Z" fill="#EBE6EF"/>
<path d="M295 214.999C295 259.221 259.221 295 215 295C170.779 295 135 259.221 135 214.999C135 170.778 170.779 134.999 215 134.999C259.221 134.999 295 170.778 295 214.999Z" stroke="#121331" stroke-width="7" stroke-miterlimit="13.8" stroke-linecap="round" stroke-linejoin="round"/>
<path d="M25 215C58.5237 143.702 130.998 94.3423 215 94.3423C299.002 94.3423 371.476 143.702 405 215C371.476 286.298 299.002 335.658 215 335.658C130.998 335.658 58.5238 286.298 25 215Z" stroke="#121331" stroke-width="7" stroke-miterlimit="10" stroke-linecap="round" stroke-linejoin="round"/>
</svg>
