<svg xmlns="http://www.w3.org/2000/svg" width="430" height="430" style="width:100%;height:100%;transform:translate3d(0,0,0);content-visibility:visible" viewBox="0 0 430 430"><defs><clipPath id="a"><path d="M0 0h430v430H0z"/></clipPath><clipPath id="d"><path d="M0 0h430v430H0z"/></clipPath><clipPath id="c"><path d="M0 0h430v430H0z"/></clipPath><clipPath id="b"><path d="M0 0h430v430H0z"/></clipPath></defs><g clip-path="url(#a)"><g clip-path="url(#b)" style="display:none"><g style="display:none"><path class="tertiary"/><path class="secondary"/><path fill="none" class="quaternary"/><path fill="none" class="quinary"/><path fill="none" class="senary"/></g><path class="quaternary" style="display:none"/><path class="quaternary" style="display:none"/><path fill="none" class="primary" style="display:none"/><path fill="none" class="primary" style="display:none"/><g fill="none" style="display:none"><path class="primary"/><path class="primary"/><path class="primary"/><path class="primary"/><path class="primary"/><path class="primary"/><path class="primary"/><path class="primary"/><path class="primary"/><path class="primary"/><path class="primary"/><path class="primary"/><path class="primary"/><path class="primary"/><path class="primary"/><path class="primary"/><path class="primary"/><path class="primary"/><path class="primary"/><path class="primary"/><path class="primary"/><path class="primary"/><path class="primary"/><path class="primary"/><path class="primary"/><path class="primary"/><path class="primary"/></g><path fill="none" class="primary" style="display:none"/></g><g clip-path="url(#c)" style="display:block"><g style="display:block"><path fill="#B4B4B4" d="M352.71 54.88H77.29c-12.377 0-22.41 10.033-22.41 22.41v275.42c0 12.377 10.033 22.41 22.41 22.41h275.42c12.377 0 22.41-10.033 22.41-22.41V77.29c0-12.377-10.033-22.41-22.41-22.41z" class="tertiary"/><path d="M375.11 105.955v-29a22.397 22.397 0 0 0-13.819-20.701 22.389 22.389 0 0 0-8.571-1.709H77.29A22.404 22.404 0 0 0 56.592 68.38a22.41 22.41 0 0 0-1.702 8.575v29h320.22z" class="secondary"/><path fill="none" stroke="#07A889" stroke-linecap="round" stroke-linejoin="round" stroke-width="15" d="M143.003 80.562h-.13" class="quaternary"/><path fill="none" stroke="#FFC638" stroke-linecap="round" stroke-linejoin="round" stroke-width="15" d="M114.877 80.562h-.13" class="quinary"/><path fill="none" stroke="#F14B00" stroke-linecap="round" stroke-linejoin="round" stroke-width="15" d="M86.877 80.562h-.13" class="senary"/></g><g style="display:block"><path fill="#07A889" d="M213.966 273.594a3 3 0 0 0-3 3v17.12a3 3 0 0 0 3 3h92.828a3 3 0 0 0 3-3v-17.12a3 3 0 0 0-3-3h-92.828z" class="quaternary"/><path fill="none" stroke="#FFF" stroke-linecap="round" stroke-linejoin="round" stroke-width="7" d="M213.966 273.594a3 3 0 0 0-3 3v17.12a3 3 0 0 0 3 3h92.828a3 3 0 0 0 3-3v-17.12a3 3 0 0 0-3-3h-92.828z" class="primary"/></g><g style="display:block"><path fill="#07A889" d="M131.401 213.97v-28.33.02c0-.84.98-1.31 1.63-.78l67.85 55.03a1 1 0 0 1 0 1.55l-67.85 55.03c-.65.53-1.63.06-1.63-.78v-28.33c0-.3.14-.59.37-.78l31.01-25.15a1 1 0 0 0 0-1.55l-31.01-25.15c-.23-.19-.37-.48-.37-.78z" class="quaternary"/><path fill="none" stroke="#FFF" stroke-linecap="round" stroke-linejoin="round" stroke-width="7" d="M131.401 213.97v-28.33.02c0-.84.98-1.31 1.63-.78l67.85 55.03a1 1 0 0 1 0 1.55l-67.85 55.03c-.65.53-1.63.06-1.63-.78v-28.33c0-.3.14-.59.37-.78l31.01-25.15a1 1 0 0 0 0-1.55l-31.01-25.15c-.23-.19-.37-.48-.37-.78z" class="primary"/></g><path fill="none" stroke="#FFF" stroke-linecap="round" stroke-linejoin="round" stroke-width="7" d="M352.71 54.88H77.29c-12.377 0-22.41 10.033-22.41 22.41v275.42c0 12.377 10.033 22.41 22.41 22.41h275.42c12.377 0 22.41-10.033 22.41-22.41V77.29c0-12.377-10.033-22.41-22.41-22.41zm22.4 51.07v-29s0 0 0 0c0-2.94-.58-5.85-1.7-8.57a22.44 22.44 0 0 0-4.85-7.27 22.469 22.469 0 0 0-7.27-4.86c-2.72-1.12-5.63-1.7-8.57-1.7H77.29c-2.94 0-5.86.58-8.57 1.7a22.469 22.469 0 0 0-7.27 4.86 22.469 22.469 0 0 0-4.86 7.27c-1.12 2.72-1.7 5.63-1.7 8.57v29h320.22z" class="primary" style="display:block"/></g><g clip-path="url(#d)" style="display:none"><g style="display:none"><path class="tertiary"/><path class="secondary"/><path fill="none" class="quaternary"/><path fill="none" class="quinary"/><path fill="none" class="senary"/></g><g style="display:none"><path class="quaternary"/><path fill="none" class="primary"/></g><g style="display:none"><path class="quaternary"/><path fill="none" class="primary"/></g><path fill="none" class="primary" style="display:none"/></g></g></svg>