<svg width="430" height="430" viewBox="0 0 430 430" fill="none" xmlns="http://www.w3.org/2000/svg">
<path d="M352.71 54.88H77.29C64.9133 54.88 54.88 64.9133 54.88 77.29V352.71C54.88 365.087 64.9133 375.12 77.29 375.12H352.71C365.087 375.12 375.12 365.087 375.12 352.71V77.29C375.12 64.9133 365.087 54.88 352.71 54.88Z" fill="#EBE6EF"/>
<path d="M352.71 54.88H77.29C71.3465 54.88 65.6464 57.2411 61.4437 61.4437C57.2411 65.6464 54.88 71.3465 54.88 77.29V106.29H375.12V77.29C375.12 74.3471 374.54 71.433 373.414 68.7141C372.288 65.9952 370.637 63.5247 368.556 61.4437C366.475 59.3628 364.005 57.7121 361.286 56.5859C358.567 55.4597 355.653 54.88 352.71 54.88Z" fill="#3A3347"/>
<path d="M142.86 80.57H143" stroke="#08A88A" stroke-width="15" stroke-linecap="round" stroke-linejoin="round"/>
<path d="M86.57 80.57H86.7" stroke="#F24C00" stroke-width="15" stroke-linecap="round" stroke-linejoin="round"/>
<path d="M114.71 80.57H114.85" stroke="#FFC738" stroke-width="15" stroke-linecap="round" stroke-linejoin="round"/>
<path d="M352.71 54.88H77.29C64.9133 54.88 54.88 64.9133 54.88 77.29V352.71C54.88 365.087 64.9133 375.12 77.29 375.12H352.71C365.087 375.12 375.12 365.087 375.12 352.71V77.29C375.12 64.9133 365.087 54.88 352.71 54.88Z" stroke="#121331" stroke-width="7" stroke-linecap="round" stroke-linejoin="round"/>
<path d="M373.12 106.25H54.88" stroke="#121331" stroke-width="7" stroke-linecap="round" stroke-linejoin="round"/>
<path d="M210.966 273.594H309.794V296.714H210.966V273.594Z" fill="#08A88A"/>
<path d="M210.966 273.594H309.794V296.714H210.966V273.594Z" stroke="#121331" stroke-width="7" stroke-linejoin="round"/>
<path d="M131.401 185.64V213.97C131.401 214.27 131.541 214.56 131.771 214.75L162.781 239.9C163.271 240.3 163.271 241.05 162.781 241.45L131.771 266.6C131.541 266.79 131.401 267.08 131.401 267.38V295.71C131.401 296.55 132.381 297.02 133.031 296.49L200.881 241.46C201.371 241.06 201.371 240.31 200.881 239.91L133.031 184.88C132.381 184.35 131.401 184.82 131.401 185.66V185.64Z" fill="#08A88A"/>
<path d="M131.401 185.64V213.97C131.401 214.27 131.541 214.56 131.771 214.75L162.781 239.9C163.271 240.3 163.271 241.05 162.781 241.45L131.771 266.6C131.541 266.79 131.401 267.08 131.401 267.38V295.71C131.401 296.55 132.381 297.02 133.031 296.49L200.881 241.46C201.371 241.06 201.371 240.31 200.881 239.91L133.031 184.88C132.381 184.35 131.401 184.82 131.401 185.66V185.64Z" stroke="#121331" stroke-width="7" stroke-linejoin="round"/>
</svg>
